<?xml version="1.0" encoding="UTF-8"?>
<svg version="1.1" xmlns="http://www.w3.org/2000/svg" width="108" height="110">
<path d="M0 0 C1.33468199 -0.00015553 2.66936442 -0.00165338 4.00404358 -0.00440979 C6.77316757 -0.00578013 9.54176489 0.00654224 12.31079102 0.02954102 C15.84685498 0.05811879 19.38205942 0.05511774 22.91818905 0.0424509 C26.32054878 0.03381027 29.72265483 0.04893383 33.125 0.0625 C35.01882668 0.05809654 35.01882668 0.05809654 36.95091248 0.05360413 C38.12976517 0.0662883 39.30861786 0.07897247 40.52319336 0.09204102 C41.55431747 0.097444 42.58544159 0.10284698 43.64781189 0.1084137 C48.38187512 0.73058275 52.41915397 2.66233 55.41015625 6.43359375 C59.0098918 11.47322352 59.16040958 16.43882157 58.59765625 22.49609375 C56.66514019 28.70048742 54.05232586 31.62070167 48.41015625 34.68359375 C44.20633743 35.8980303 39.94999744 36.17495013 35.59765625 36.49609375 C36.23832031 36.77582031 36.87898438 37.05554687 37.5390625 37.34375 C47.91549431 42.1530947 53.15080083 47.98534457 57.59765625 58.49609375 C60.31749308 66.65560425 59.60507553 77.58285952 55.93359375 85.31640625 C52.47321272 90.96229109 47.9935797 95.66214814 42.59765625 99.49609375 C41.89640625 100.03234375 41.19515625 100.56859375 40.47265625 101.12109375 C32.07568339 105.13703729 22.23076064 104.81494038 13.1171875 104.83203125 C11.23793831 104.84201645 11.23793831 104.84201645 9.32072449 104.85220337 C6.68949846 104.86227036 4.05824721 104.86702225 1.42700195 104.86669922 C-1.25653793 104.86653583 -3.93940123 104.88056955 -6.62280273 104.90771484 C-10.52218266 104.94440032 -14.42077714 104.9541722 -18.3203125 104.95703125 C-19.51319382 104.97140228 -20.70607513 104.98577332 -21.93510437 105.00057983 C-28.90764128 104.96244631 -33.48526061 104.27100132 -39.40234375 100.49609375 C-43.45336659 96.34119853 -44.53114896 92.8696493 -44.65234375 87.18359375 C-44.56883452 82.0978819 -43.58680295 77.79992231 -39.97265625 73.98828125 C-35.6876391 70.25754492 -32.23624755 69.38829759 -26.71484375 68.93359375 C-25.72097656 68.84980469 -24.72710938 68.76601562 -23.703125 68.6796875 C-22.94386719 68.61910156 -22.18460938 68.55851562 -21.40234375 68.49609375 C-22.03140625 68.22796875 -22.66046875 67.95984375 -23.30859375 67.68359375 C-33.78915512 62.88526445 -40.20553705 56.28006227 -44.40234375 45.49609375 C-45.21484375 42.43359375 -45.21484375 42.43359375 -45.40234375 39.49609375 C-45.45261719 38.83222656 -45.50289062 38.16835938 -45.5546875 37.484375 C-45.98535813 27.6134042 -42.7631071 19.01717217 -36.40234375 11.49609375 C-26.47786521 1.35107125 -13.58736533 -0.12227045 0 0 Z M-26.40234375 8.49609375 C-27.05479568 8.87439331 -27.70724762 9.25269287 -28.37947083 9.64245605 C-34.79645131 13.5485985 -39.13951226 20.42862007 -41.40234375 27.49609375 C-42.48785898 38.65418048 -41.29474334 46.93658946 -34.15234375 55.74609375 C-27.35880194 63.01764596 -19.66965407 66.37455692 -9.73046875 66.81494141 C-8.03795941 66.85594083 -6.34519531 66.8872998 -4.65234375 66.91015625 C-3.30426636 66.93920547 -3.30426636 66.93920547 -1.92895508 66.96884155 C0.91315521 67.02813983 3.7553071 67.07482183 6.59765625 67.12109375 C8.53647501 67.15931942 10.47527763 67.19837375 12.4140625 67.23828125 C17.14179435 67.33379985 21.86960557 67.41801235 26.59765625 67.49609375 C26.59765625 68.81609375 26.59765625 70.13609375 26.59765625 71.49609375 C14.71765625 71.82609375 2.83765625 72.15609375 -9.40234375 72.49609375 C-8.08234375 73.48609375 -6.76234375 74.47609375 -5.40234375 75.49609375 C-1.78648676 78.80202014 -0.56746378 80.77884545 -0.08984375 85.74609375 C-0.49095424 90.5594196 -1.57060613 92.59288785 -4.40234375 96.49609375 C-9.05057964 99.20606912 -14.11974151 98.82760359 -19.33984375 98.80859375 C-20.22091797 98.82470703 -21.10199219 98.84082031 -22.00976562 98.85742188 C-27.21931222 98.86132416 -30.92134916 98.45059567 -35.40234375 95.49609375 C-39.08158823 90.46779296 -38.72054397 85.45940165 -38.40234375 79.49609375 C-41.06482458 82.15857458 -41.1206708 83.7639272 -41.40234375 87.49609375 C-40.42960878 93.04068307 -38.67842227 95.86142701 -34.40234375 99.49609375 C-31.70254044 100.8459954 -29.57371795 100.6456581 -26.55078125 100.6730957 C-25.32190186 100.68593094 -24.09302246 100.69876617 -22.8269043 100.71199036 C-21.4770549 100.72016258 -20.12720091 100.72760539 -18.77734375 100.734375 C-18.09660797 100.73845053 -17.41587219 100.74252605 -16.71450806 100.74672508 C-13.10443424 100.76760094 -9.49439849 100.78189039 -5.88427734 100.79125977 C-2.17676808 100.80226727 1.5301315 100.83659556 5.23742676 100.87643147 C8.10472628 100.90275285 10.97188476 100.91096569 13.83929443 100.91454124 C15.20428539 100.91937523 16.56927141 100.93089694 17.93414307 100.94957924 C30.6483701 101.11265168 39.16454476 98.78538427 48.4609375 89.94140625 C54.08696458 83.5028451 55.99465447 75.67102273 55.87109375 67.28125 C55.12120393 59.64308652 52.08003437 52.83896257 46.7890625 47.28515625 C37.89365751 40.02295396 28.55994812 38.40491989 17.48046875 38.1796875 C16.19473465 38.14851585 16.19473465 38.14851585 14.88302612 38.11671448 C12.16297911 38.05168114 9.44284108 37.99255034 6.72265625 37.93359375 C4.87108459 37.89036451 3.01952191 37.84674885 1.16796875 37.80273438 C-3.35537706 37.69604754 -7.87881382 37.59465181 -12.40234375 37.49609375 C-12.89734375 35.02109375 -12.89734375 35.02109375 -13.40234375 32.49609375 C-12.29147148 32.48729439 -12.29147148 32.48729439 -11.15815735 32.47831726 C-4.16934841 32.4203465 2.81918827 32.3482446 9.80768108 32.26037884 C13.4003289 32.21570429 16.99286409 32.17644213 20.58569336 32.1496582 C24.05481322 32.12359552 27.523499 32.08317319 30.99234962 32.03290749 C32.9558747 32.00817154 34.91956783 31.99820148 36.88322449 31.9884491 C38.08409195 31.96865494 39.28495941 31.94886078 40.5222168 31.9284668 C41.57700729 31.91736374 42.63179779 31.90626068 43.71855164 31.89482117 C48.03291684 31.2973244 50.68879465 29.6646301 53.34765625 26.24609375 C55.94947226 20.52209852 55.86827134 16.18172695 53.875 10.390625 C51.8920405 7.44953828 49.86034102 5.78821501 46.59765625 4.49609375 C41.84919234 3.88907863 37.10722476 3.93248773 32.328125 3.96484375 C30.92336255 3.96214505 29.51860193 3.9582595 28.11384583 3.95324707 C25.17426716 3.94736381 22.23517606 3.95587231 19.2956543 3.97460938 C15.54992413 3.99733598 11.80534458 3.98430992 8.0596571 3.96031952 C5.15887492 3.94577499 2.25835953 3.95050777 -0.64243126 3.96083069 C-2.02216418 3.96347749 -3.40192223 3.96030118 -4.78162575 3.95091248 C-12.8765681 3.90792809 -19.3487672 4.33383717 -26.40234375 8.49609375 Z M-37.40234375 76.49609375 C-37.40234375 79.49609375 -37.40234375 79.49609375 -37.40234375 79.49609375 Z " fill="#575757" transform="translate(49.40234375,3.50390625)"/>
<path d="M0 0 C1.08023438 -0.03287109 2.16046875 -0.06574219 3.2734375 -0.09960938 C11.22305899 -0.15358829 11.22305899 -0.15358829 15.16796875 2.84765625 C18.5539902 7.63429212 19.61418041 10.39805927 19 16.4375 C17.56594581 20.40559313 16.02099697 22.75788901 12.4765625 25.1171875 C7.88200196 26.86208802 3.87046845 26.87696208 -1 26.8125 C-2.31484375 26.82990234 -2.31484375 26.82990234 -3.65625 26.84765625 C-8.83126689 26.82427515 -12.56556892 26.38921109 -17 23.4375 C-19.86508239 20.34259816 -20.90997643 17.06766499 -21.5 12.9375 C-20.8514257 8.39747992 -19.70046937 6.15976858 -17 2.4375 C-11.54963049 -0.35314944 -5.98786121 0.03215439 0 0 Z " fill="#3E3E3C" transform="translate(31,76.5625)"/>
<path d="M0 0 C18.48 0 36.96 0 56 0 C56 0.33 56 0.66 56 1 C52.7 1.33 49.4 1.66 46 2 C47.505625 2.680625 49.01125 3.36125 50.5625 4.0625 C60.51040627 9.092656 65.50984855 16.52954565 69 27 C69.80544856 38.63278992 69.35952885 48.07985207 61.5625 57.375 C58.8968536 60.19978947 56.17376589 62.74495582 53 65 C52.29875 65.53625 51.5975 66.0725 50.875 66.625 C42.47802714 70.64094354 32.63310439 70.31884663 23.51953125 70.3359375 C21.64028206 70.3459227 21.64028206 70.3459227 19.72306824 70.35610962 C17.09184221 70.36617661 14.46059096 70.3709285 11.8293457 70.37060547 C9.14580582 70.37044208 6.46294252 70.3844758 3.77954102 70.41162109 C-0.11983891 70.44830657 -4.01843339 70.45807845 -7.91796875 70.4609375 C-9.11085007 70.47530853 -10.30373138 70.48967957 -11.53276062 70.50448608 C-18.50529753 70.46635256 -23.08291686 69.77490757 -29 66 C-33.05102284 61.84510478 -34.12880521 58.37355555 -34.25 52.6875 C-34.16607074 47.57620829 -33.16718979 43.28277324 -29.53515625 39.45703125 C-25.57457983 36 -25.57457983 36 -23 36 C-23 36.66 -23 37.32 -23 38 C-15.08 38 -7.16 38 1 38 C1 38.33 1 38.66 1 39 C0.29915283 39.00410889 -0.40169434 39.00821777 -1.1237793 39.01245117 C-4.31253205 39.04543372 -7.49938605 39.11608332 -10.6875 39.1875 C-12.34168945 39.19620117 -12.34168945 39.19620117 -14.02929688 39.20507812 C-20.54428011 39.32449186 -20.54428011 39.32449186 -26.1796875 42.30859375 C-28.58881145 45.87058173 -29.70700027 48.71080953 -30 53 C-29.29614601 56.75815858 -29.29614601 56.75815858 -28 60 C-27.67 60.99 -27.34 61.98 -27 63 C-23.26241779 65.00897698 -20.00327256 65.26085536 -15.80786133 65.29052734 C-13.96488213 65.3096669 -13.96488213 65.3096669 -12.08467102 65.32919312 C-10.75045938 65.33225202 -9.4162456 65.33447911 -8.08203125 65.3359375 C-6.70065679 65.34237276 -5.31928366 65.34910166 -3.93791199 65.35610962 C-1.04378099 65.36806699 1.85023082 65.3717923 4.74438477 65.37060547 C8.42831244 65.37040294 12.11146289 65.39764172 15.79520702 65.43214989 C18.64965728 65.4545458 21.50392469 65.45843909 24.35845375 65.45738602 C26.36900693 65.46085307 28.37950302 65.48244372 30.38993835 65.50448608 C41.6727469 65.44869591 49.81698642 63.03871425 58.0859375 55.22265625 C63.55538359 48.87140151 65.38629909 40.99703173 65.27734375 32.7890625 C64.57556035 25.73169144 61.87472115 18.76022775 56.96875 13.56640625 C51.12378324 8.91594659 44.38535289 5.94514933 37 5 C38.32 4.34 39.64 3.68 41 3 C37.13676662 1.71225554 33.42509463 1.76617207 29.39453125 1.68359375 C28.13572395 1.6524221 28.13572395 1.6524221 26.85148621 1.62062073 C24.17190706 1.55525982 21.49223031 1.49630286 18.8125 1.4375 C16.99543263 1.39430198 15.17837512 1.35068727 13.36132812 1.30664062 C8.90765201 1.1995922 4.45387774 1.09828681 0 1 C0 0.67 0 0.34 0 0 Z " fill="#7B7B7A" transform="translate(39,38)"/>
<path d="M0 0 C3.97683345 0.96408084 5.72980592 2.71999868 8.1875 5.8125 C13.08201722 11.70305683 19.48582699 14.81660669 27 16 C30.15070792 16.19356055 33.30130154 16.25585632 36.45703125 16.31640625 C37.35999435 16.33718735 38.26295746 16.35796844 39.19328308 16.37937927 C42.06628097 16.4445528 44.93936714 16.50360955 47.8125 16.5625 C49.76498294 16.60571586 51.71745708 16.64933112 53.66992188 16.69335938 C58.44652503 16.80020107 63.22321664 16.90155857 68 17 C68.38218767 18.65614657 68.71395102 20.32457024 69 22 C68 23 68 23 65.60191345 23.12025452 C64.53824051 23.11803391 63.47456757 23.11581329 62.37866211 23.11352539 C61.17749252 23.11344986 59.97632294 23.11337433 58.73875427 23.11329651 C57.4314888 23.10813522 56.12422333 23.10297394 54.77734375 23.09765625 C53.43355868 23.09579198 52.08977293 23.09436812 50.74598694 23.09336853 C47.20317723 23.08954402 43.6604083 23.07971432 40.11761475 23.06866455 C36.50484773 23.05844899 32.89207416 23.0538706 29.27929688 23.04882812 C22.1861812 23.03809198 15.09309326 23.02101636 8 23 C8.33 22.01 8.66 21.02 9 20 C12.63 19.67 16.26 19.34 20 19 C17.7725 18.01 17.7725 18.01 15.5 17 C8.89928024 13.71839217 4.07519184 9.11278776 0 3 C0 2.01 0 1.02 0 0 Z " fill="#575755" transform="translate(8,53)"/>
<path d="M0 0 C2.01584091 0.11403801 4.03485811 0.17612398 6.05371094 0.20532227 C7.27467468 0.22526749 8.49563843 0.24521271 9.75360107 0.26576233 C11.06725647 0.28247482 12.38091187 0.29918732 13.734375 0.31640625 C15.09629936 0.33698919 16.45821752 0.35798601 17.82012939 0.37937927 C21.39734872 0.43446165 24.97462438 0.48393164 28.55194092 0.53222656 C32.20525094 0.58254289 35.85847958 0.63817597 39.51171875 0.69335938 C46.67441017 0.80077162 53.83716946 0.90225385 61 1 C61 1.33 61 1.66 61 2 C60.23071671 2.00364563 59.46143341 2.00729126 58.6688385 2.01104736 C51.3868722 2.04905664 44.10541022 2.10605422 36.82376957 2.18390274 C33.08098263 2.22326026 29.33842683 2.25550555 25.59545898 2.27099609 C21.97711968 2.28624091 18.35941629 2.32082211 14.74136162 2.36830902 C13.36726882 2.3830429 11.99308518 2.39103639 10.61891365 2.39188385 C2.50296323 2.4019145 -3.90333097 2.90450517 -11 7 C-12.051875 7.556875 -13.10375 8.11375 -14.1875 8.6875 C-19.2839535 12.87791733 -23.00026356 18.70589868 -25 25 C-25.74454712 33.54778774 -25.33565996 41.07780759 -22 49 C-24.375 48.8125 -24.375 48.8125 -27 48 C-31.14365929 40.74859624 -30.95464253 30.87817524 -28.875 23 C-25.52566609 12.99851679 -19.19709872 5.68105578 -9.78515625 0.8671875 C-6.01190462 -0.69270423 -3.8369361 -1.02776048 0 0 Z " fill="#9A9A9A" transform="translate(34,6)"/>
<path d="M0 0 C18.48 0 36.96 0 56 0 C56 0.33 56 0.66 56 1 C52.7 1.33 49.4 1.66 46 2 C47.505625 2.680625 49.01125 3.36125 50.5625 4.0625 C60.51040627 9.092656 65.50984855 16.52954565 69 27 C69.07051114 29.73865287 69.09357765 32.45027588 69.0625 35.1875 C69.05798828 35.93708984 69.05347656 36.68667969 69.04882812 37.45898438 C69.03706354 39.30602383 69.01912865 41.15302213 69 43 C67.515 43.495 67.515 43.495 66 44 C65.97421875 43.11699219 65.9484375 42.23398438 65.921875 41.32421875 C65.44465207 31.22661539 64.19771244 21.21951699 56.96875 13.56640625 C51.12378324 8.91594659 44.38535289 5.94514933 37 5 C38.32 4.34 39.64 3.68 41 3 C37.13676662 1.71225554 33.42509463 1.76617207 29.39453125 1.68359375 C28.13572395 1.6524221 28.13572395 1.6524221 26.85148621 1.62062073 C24.17190706 1.55525982 21.49223031 1.49630286 18.8125 1.4375 C16.99543263 1.39430198 15.17837512 1.35068727 13.36132812 1.30664062 C8.90765201 1.1995922 4.45387774 1.09828681 0 1 C0 0.67 0 0.34 0 0 Z " fill="#A0A0A0" transform="translate(39,38)"/>
<path d="M0 0 C19.47 0 38.94 0 59 0 C59 0.66 59 1.32 59 2 C53.06 2.33 47.12 2.66 41 3 C42.32 3.66 43.64 4.32 45 5 C45 5.33 45 5.66 45 6 C38.75204325 6.02527124 32.50409959 6.04283344 26.25610352 6.05493164 C24.12881986 6.05997298 22.00153969 6.06680591 19.87426758 6.07543945 C16.82372174 6.08751379 13.77322155 6.09323014 10.72265625 6.09765625 C9.28672874 6.10539818 9.28672874 6.10539818 7.8217926 6.11329651 C6.94095505 6.11337204 6.06011749 6.11344757 5.15258789 6.11352539 C4.37315323 6.115746 3.59371857 6.11796661 2.79066467 6.12025452 C1 6 1 6 0 5 C0 3.35 0 1.7 0 0 Z " fill="#444444" transform="translate(36,36)"/>
<path d="M0 0 C4.53778675 3.06607213 6.37172175 5.77236982 8 11 C8.77274702 16.98085024 8.02367103 21.68250956 5 27 C1.84889946 30.15110054 -0.57135029 31.4938686 -5 32 C-5 31.34 -5 30.68 -5 30 C-23.81 30 -42.62 30 -62 30 C-62 29.67 -62 29.34 -62 29 C-60.92338104 28.98786972 -60.92338104 28.98786972 -59.82501221 28.97549438 C-53.05668489 28.89751209 -46.28853483 28.81021036 -39.52046585 28.71247292 C-36.04102811 28.66255436 -32.56162007 28.61622418 -29.08203125 28.578125 C-25.08053553 28.53415337 -21.07940584 28.47452029 -17.078125 28.4140625 C-15.83009094 28.40251129 -14.58205688 28.39096008 -13.29620361 28.37905884 C-11.55485138 28.3492543 -11.55485138 28.3492543 -9.77832031 28.31884766 C-8.24609833 28.29886215 -8.24609833 28.29886215 -6.68292236 28.2784729 C-3.93698618 27.9934595 -2.31125901 27.47976702 0 26 C2.94209614 22.18617168 3.83756366 18.79187217 4 14 C2.91653828 9.47446376 1.46903382 6.15721055 -2 3 C-1.34 2.01 -0.68 1.02 0 0 Z " fill="#A9A9A9" transform="translate(100,6)"/>
<path d="M0 0 C0 0.66 0 1.32 0 2 C7.92 2 15.84 2 24 2 C24 2.33 24 2.66 24 3 C23.29915283 3.00410889 22.59830566 3.00821777 21.8762207 3.01245117 C18.68746795 3.04543372 15.50061395 3.11608332 12.3125 3.1875 C10.65831055 3.19620117 10.65831055 3.19620117 8.97070312 3.20507812 C2.45571989 3.32449186 2.45571989 3.32449186 -3.1796875 6.30859375 C-5.58881145 9.87058173 -6.70700027 12.71080953 -7 17 C-6.29614601 20.75815858 -6.29614601 20.75815858 -5 24 C-4.67 24.99 -4.34 25.98 -4 27 C-1.49552484 28.21869929 -1.49552484 28.21869929 1 29 C0.34 29.99 -0.32 30.98 -1 32 C-5.42117715 30.64908476 -7.443343 28.8349855 -10 25 C-11.7654425 19.36684464 -11.55803645 13.86012149 -9.875 8.25 C-7.75973206 4.58353558 -4.67974178 0 0 0 Z " fill="#7F7F7E" transform="translate(16,74)"/>
<path d="M0 0 C0.33 1.32 0.66 2.64 1 4 C1.66 4 2.32 4 3 4 C2.22874218 12.22675008 -3.96515138 18.86451327 -10 24 C-15.27105701 28.11217213 -20.4251516 28.73541858 -27 29 C-27 28.67 -27 28.34 -27 28 C-25.35 28 -23.7 28 -22 28 C-22 27.34 -22 26.68 -22 26 C-22.66 25.67 -23.32 25.34 -24 25 C-23.07380859 24.70609375 -23.07380859 24.70609375 -22.12890625 24.40625 C-14.44902347 21.69432792 -7.84634417 17.78846299 -3.5859375 10.62109375 C-1.99557113 7.14860316 -0.87040151 3.71594492 0 0 Z " fill="#727272" transform="translate(104,78)"/>
<path d="M0 0 C19.47 0 38.94 0 59 0 C59 0.66 59 1.32 59 2 C30.29 2.495 30.29 2.495 1 3 C0.67 3.66 0.34 4.32 0 5 C0 3.35 0 1.7 0 0 Z " fill="#383838" transform="translate(36,36)"/>
<path d="M0 0 C3.97683345 0.96408084 5.72980592 2.71999868 8.1875 5.8125 C13.11868667 11.74718855 19.4569497 14.72492922 27 16 C27 16.33 27 16.66 27 17 C21.82116111 18.07184985 17.50058628 18.82758839 12.8125 16 C7.82092116 12.37528352 3.42199072 8.13298608 0 3 C0 2.01 0 1.02 0 0 Z " fill="#6B6B6B" transform="translate(8,53)"/>
<path d="M0 0 C0.33 1.32 0.66 2.64 1 4 C1.66 4 2.32 4 3 4 C2.52585143 9.0575847 -0.00750598 13.01000797 -3 17 C-3.66 17.33 -4.32 17.66 -5 18 C-5.66 17.67 -6.32 17.34 -7 17 C-6.71253906 16.4328125 -6.42507812 15.865625 -6.12890625 15.28125 C-5.01918663 13.0387716 -3.96486926 10.78130665 -2.9375 8.5 C-2.42509766 7.37078125 -2.42509766 7.37078125 -1.90234375 6.21875 C-1.06305349 4.15504062 -0.47886542 2.17217303 0 0 Z " fill="#696969" transform="translate(104,78)"/>
<path d="M0 0 C3.81779351 1.16044443 6.95792471 3.34371868 10.171875 5.66015625 C8.4765625 6.7734375 8.4765625 6.7734375 6.171875 7.66015625 C3.8046875 7.015625 3.8046875 7.015625 1.296875 5.84765625 C-2.43766794 4.20688812 -5.73470639 3.09104242 -9.828125 2.66015625 C-6.76675619 -0.52876959 -4.29650004 -0.70262313 0 0 Z " fill="#727272" transform="translate(85.828125,40.33984375)"/>
<path d="M0 0 C2.80478513 2.80478513 2.96108361 4.88543472 3.09765625 8.796875 C3.08605469 9.77140625 3.07445313 10.7459375 3.0625 11.75 C3.05347656 12.73484375 3.04445313 13.7196875 3.03515625 14.734375 C3.02355469 15.48203125 3.01195313 16.2296875 3 17 C2.01 17.33 1.02 17.66 0 18 C0 12.06 0 6.12 0 0 Z " fill="#4A4A4A" transform="translate(105,64)"/>
<path d="M0 0 C0.73605469 0.34933594 1.47210937 0.69867188 2.23046875 1.05859375 C3.69419922 1.74115234 3.69419922 1.74115234 5.1875 2.4375 C6.15042969 2.88996094 7.11335938 3.34242187 8.10546875 3.80859375 C10.76631586 4.90381422 13.16784755 5.54954796 16 6 C16 6.33 16 6.66 16 7 C9.78630501 8.01924246 5.51648654 8.62926746 0 5 C0.66 4.67 1.32 4.34 2 4 C2 3.34 2 2.68 2 2 C1.34 2 0.68 2 0 2 C0 1.34 0 0.68 0 0 Z " fill="#808080" transform="translate(19,63)"/>
<path d="M0 0 C3.81926912 4.51368168 5.34720628 9.09749318 5 15 C4.34 13.68 3.68 12.36 3 11 C2.34 11.66 1.68 12.32 1 13 C0.01 9.37 -0.98 5.74 -2 2 C-1.34 2 -0.68 2 0 2 C0 1.34 0 0.68 0 0 Z " fill="#787878" transform="translate(103,55)"/>
<path d="M0 0 C-0.4452885 5.27315333 -1.08373163 10.01770224 -3 15 C-3.33 15 -3.66 15 -4 15 C-4.02705729 13.22925083 -4.04642195 11.45838289 -4.0625 9.6875 C-4.07410156 8.70136719 -4.08570313 7.71523438 -4.09765625 6.69921875 C-4 4 -4 4 -3 1 C-1 0 -1 0 0 0 Z " fill="#4F4F4F" transform="translate(9,25)"/>
<path d="M0 0 C2.90802461 2.21928194 4.95312762 3.92969143 7 7 C6.625 9.1875 6.625 9.1875 6 11 C6 10.01 6 9.02 6 8 C5.34 8 4.68 8 4 8 C3.67 8.66 3.34 9.32 3 10 C2.54625 9.21625 2.0925 8.4325 1.625 7.625 C0.11571258 4.96301969 0.11571258 4.96301969 -2 3 C-1.34 2.01 -0.68 1.02 0 0 Z " fill="#797979" transform="translate(100,6)"/>
<path d="M0 0 C0.66 0 1.32 0 2 0 C2 0.99 2 1.98 2 3 C2.66 3 3.32 3 4 3 C4 5.97 4 8.94 4 12 C3.01 12 2.02 12 1 12 C0.67 8.04 0.34 4.08 0 0 Z " fill="#606060" transform="translate(104,14)"/>
<path d="M0 0 C0.99 0.33 1.98 0.66 3 1 C1.50958227 4.79379058 -0.69062512 6.68343758 -4 9 C-4.66 9 -5.32 9 -6 9 C-4.47291037 5.56404834 -2.40072955 2.88087546 0 0 Z " fill="#646464" transform="translate(96,94)"/>
<path d="M0 0 C1.25 1.5625 1.25 1.5625 2 4 C0.93237266 6.57001015 -0.46544943 8.6530403 -2 11 C-2.99 10.34 -3.98 9.68 -5 9 C-3.90931332 5.22454612 -3.0916909 2.52956528 0 0 Z " fill="#707070" transform="translate(12,17)"/>
<path d="M0 0 C-3.96 0.66 -7.92 1.32 -12 2 C-12 1.34 -12 0.68 -12 0 C-12.66 -0.33 -13.32 -0.66 -14 -1 C-7.82051983 -3.38752643 -5.83391525 -2.91695762 0 0 Z " fill="#7E7E7E" transform="translate(38,8)"/>
<path d="M0 0 C0 0.66 0 1.32 0 2 C-2.64738916 3.4606285 -3.89448334 4 -7 4 C-6.625 2.0625 -6.625 2.0625 -6 0 C-3.50907189 -1.24546405 -2.58919267 -0.7767578 0 0 Z " fill="#666666" transform="translate(102,34)"/>
<path d="M0 0 C1.134375 0.020625 2.26875 0.04125 3.4375 0.0625 C3.7675 0.7225 4.0975 1.3825 4.4375 2.0625 C4.1075 2.7225 3.7775 3.3825 3.4375 4.0625 C0.50870629 3.43490135 -1.92345629 2.47627341 -4.5625 1.0625 C-3.5625 0.0625 -3.5625 0.0625 0 0 Z " fill="#555555" transform="translate(95.5625,4.9375)"/>
<path d="M0 0 C0.33 1.32 0.66 2.64 1 4 C1.66 4 2.32 4 3 4 C2.67 5.65 2.34 7.3 2 9 C1.01 9 0.02 9 -1 9 C-2.60031344 5.79937313 -1.03173691 3.27728194 0 0 Z " fill="#8D8D8D" transform="translate(104,78)"/>
<path d="M0 0 C0.33 0 0.66 0 1 0 C1.33 1.65 1.66 3.3 2 5 C2.33 5 2.66 5 3 5 C3 6.98 3 8.96 3 11 C2.01 11.495 2.01 11.495 1 12 C0.03929566 9.11788698 -0.10581883 7.30149956 -0.0625 4.3125 C-0.05347656 3.50425781 -0.04445312 2.69601563 -0.03515625 1.86328125 C-0.02355469 1.24839844 -0.01195312 0.63351563 0 0 Z " fill="#7A7A7A" transform="translate(4,34)"/>
<path d="M0 0 C2.475 0.99 2.475 0.99 5 2 C5 3.32 5 4.64 5 6 C4.01 6 3.02 6 2 6 C0 3 0 3 0 0 Z " fill="#626262" transform="translate(8,53)"/>
<path d="M0 0 C0.99 0 1.98 0 3 0 C3.66 1.98 4.32 3.96 5 6 C3.35 5.67 1.7 5.34 0 5 C-0.5625 3.0625 -0.5625 3.0625 -1 1 C-0.67 0.67 -0.34 0.34 0 0 Z " fill="#7E7E7E" transform="translate(7,49)"/>
</svg>
